<mxfile host="app.diagrams.net" modified="2022-01-15T22:54:16.812Z" agent="5.0 (Windows)" etag="6yHI8umQqjix1sIaZOiX" version="15.6.8" type="github">
  <diagram name="Page-1" id="efa7a0a1-bf9b-a30e-e6df-94a7791c09e9">
    <mxGraphModel dx="3256" dy="2107" grid="1" gridSize="10" guides="1" tooltips="1" connect="1" arrows="1" fold="1" page="1" pageScale="1" pageWidth="826" pageHeight="1169" background="none" math="0" shadow="0">
      <root>
        <mxCell id="0" />
        <mxCell id="1" parent="0" />
        <mxCell id="ai49O4Mp9xUd7SfKjjoI-117" value="Person {abstract}" style="swimlane;fontStyle=1;align=center;verticalAlign=top;childLayout=stackLayout;horizontal=1;startSize=26;horizontalStack=0;resizeParent=1;resizeParentMax=0;resizeLast=0;collapsible=1;marginBottom=0;" parent="1" vertex="1">
          <mxGeometry x="-160" y="-464" width="160" height="144" as="geometry" />
        </mxCell>
        <mxCell id="ai49O4Mp9xUd7SfKjjoI-118" value="Name&#xa;Surname&#xa;Phone Number&#xa;Email&#xa;Identification Number&#xa;" style="text;strokeColor=none;fillColor=none;align=left;verticalAlign=top;spacingLeft=4;spacingRight=4;overflow=hidden;rotatable=0;points=[[0,0.5],[1,0.5]];portConstraint=eastwest;" parent="ai49O4Mp9xUd7SfKjjoI-117" vertex="1">
          <mxGeometry y="26" width="160" height="84" as="geometry" />
        </mxCell>
        <mxCell id="ai49O4Mp9xUd7SfKjjoI-119" value="" style="line;strokeWidth=1;fillColor=none;align=left;verticalAlign=middle;spacingTop=-1;spacingLeft=3;spacingRight=3;rotatable=0;labelPosition=right;points=[];portConstraint=eastwest;" parent="ai49O4Mp9xUd7SfKjjoI-117" vertex="1">
          <mxGeometry y="110" width="160" height="8" as="geometry" />
        </mxCell>
        <mxCell id="ai49O4Mp9xUd7SfKjjoI-120" value="+ method(type): type" style="text;strokeColor=none;fillColor=none;align=left;verticalAlign=top;spacingLeft=4;spacingRight=4;overflow=hidden;rotatable=0;points=[[0,0.5],[1,0.5]];portConstraint=eastwest;" parent="ai49O4Mp9xUd7SfKjjoI-117" vertex="1">
          <mxGeometry y="118" width="160" height="26" as="geometry" />
        </mxCell>
        <mxCell id="ai49O4Mp9xUd7SfKjjoI-121" value="Chef" style="swimlane;fontStyle=1;align=center;verticalAlign=top;childLayout=stackLayout;horizontal=1;startSize=26;horizontalStack=0;resizeParent=1;resizeParentMax=0;resizeLast=0;collapsible=1;marginBottom=0;" parent="1" vertex="1">
          <mxGeometry x="-280" y="104" width="160" height="144" as="geometry" />
        </mxCell>
        <mxCell id="ai49O4Mp9xUd7SfKjjoI-122" value="EmployeeID&#xa;TasksList&#xa;" style="text;strokeColor=none;fillColor=none;align=left;verticalAlign=top;spacingLeft=4;spacingRight=4;overflow=hidden;rotatable=0;points=[[0,0.5],[1,0.5]];portConstraint=eastwest;" parent="ai49O4Mp9xUd7SfKjjoI-121" vertex="1">
          <mxGeometry y="26" width="160" height="84" as="geometry" />
        </mxCell>
        <mxCell id="ai49O4Mp9xUd7SfKjjoI-123" value="" style="line;strokeWidth=1;fillColor=none;align=left;verticalAlign=middle;spacingTop=-1;spacingLeft=3;spacingRight=3;rotatable=0;labelPosition=right;points=[];portConstraint=eastwest;" parent="ai49O4Mp9xUd7SfKjjoI-121" vertex="1">
          <mxGeometry y="110" width="160" height="8" as="geometry" />
        </mxCell>
        <mxCell id="ai49O4Mp9xUd7SfKjjoI-124" value="+ method(type): type" style="text;strokeColor=none;fillColor=none;align=left;verticalAlign=top;spacingLeft=4;spacingRight=4;overflow=hidden;rotatable=0;points=[[0,0.5],[1,0.5]];portConstraint=eastwest;" parent="ai49O4Mp9xUd7SfKjjoI-121" vertex="1">
          <mxGeometry y="118" width="160" height="26" as="geometry" />
        </mxCell>
        <mxCell id="ai49O4Mp9xUd7SfKjjoI-125" value="Guest&#xa;" style="swimlane;fontStyle=1;align=center;verticalAlign=top;childLayout=stackLayout;horizontal=1;startSize=26;horizontalStack=0;resizeParent=1;resizeParentMax=0;resizeLast=0;collapsible=1;marginBottom=0;" parent="1" vertex="1">
          <mxGeometry x="80" y="-200" width="160" height="144" as="geometry" />
        </mxCell>
        <mxCell id="ai49O4Mp9xUd7SfKjjoI-126" value="GuestID&#xa;Lista Pobytów&#xa;VehicleRegistrationNumber&#xa;" style="text;strokeColor=none;fillColor=none;align=left;verticalAlign=top;spacingLeft=4;spacingRight=4;overflow=hidden;rotatable=0;points=[[0,0.5],[1,0.5]];portConstraint=eastwest;" parent="ai49O4Mp9xUd7SfKjjoI-125" vertex="1">
          <mxGeometry y="26" width="160" height="84" as="geometry" />
        </mxCell>
        <mxCell id="ai49O4Mp9xUd7SfKjjoI-127" value="" style="line;strokeWidth=1;fillColor=none;align=left;verticalAlign=middle;spacingTop=-1;spacingLeft=3;spacingRight=3;rotatable=0;labelPosition=right;points=[];portConstraint=eastwest;" parent="ai49O4Mp9xUd7SfKjjoI-125" vertex="1">
          <mxGeometry y="110" width="160" height="8" as="geometry" />
        </mxCell>
        <mxCell id="ai49O4Mp9xUd7SfKjjoI-128" value="+ method(type): type" style="text;strokeColor=none;fillColor=none;align=left;verticalAlign=top;spacingLeft=4;spacingRight=4;overflow=hidden;rotatable=0;points=[[0,0.5],[1,0.5]];portConstraint=eastwest;" parent="ai49O4Mp9xUd7SfKjjoI-125" vertex="1">
          <mxGeometry y="118" width="160" height="26" as="geometry" />
        </mxCell>
        <mxCell id="ai49O4Mp9xUd7SfKjjoI-130" value="Room&#xa;" style="swimlane;fontStyle=1;align=center;verticalAlign=top;childLayout=stackLayout;horizontal=1;startSize=26;horizontalStack=0;resizeParent=1;resizeParentMax=0;resizeLast=0;collapsible=1;marginBottom=0;" parent="1" vertex="1">
          <mxGeometry x="650" y="-520" width="160" height="164" as="geometry" />
        </mxCell>
        <mxCell id="ai49O4Mp9xUd7SfKjjoI-131" value="RoomID&#xa;Room Number&#xa;IsToClean&#xa;Maximum Occupancy&#xa;Area&#xa;IsBalcony&#xa;IsAvailable&#xa;&#xa;&#xa;" style="text;strokeColor=none;fillColor=none;align=left;verticalAlign=top;spacingLeft=4;spacingRight=4;overflow=hidden;rotatable=0;points=[[0,0.5],[1,0.5]];portConstraint=eastwest;" parent="ai49O4Mp9xUd7SfKjjoI-130" vertex="1">
          <mxGeometry y="26" width="160" height="104" as="geometry" />
        </mxCell>
        <mxCell id="ai49O4Mp9xUd7SfKjjoI-132" value="" style="line;strokeWidth=1;fillColor=none;align=left;verticalAlign=middle;spacingTop=-1;spacingLeft=3;spacingRight=3;rotatable=0;labelPosition=right;points=[];portConstraint=eastwest;" parent="ai49O4Mp9xUd7SfKjjoI-130" vertex="1">
          <mxGeometry y="130" width="160" height="8" as="geometry" />
        </mxCell>
        <mxCell id="ai49O4Mp9xUd7SfKjjoI-133" value="+ method(type): type" style="text;strokeColor=none;fillColor=none;align=left;verticalAlign=top;spacingLeft=4;spacingRight=4;overflow=hidden;rotatable=0;points=[[0,0.5],[1,0.5]];portConstraint=eastwest;" parent="ai49O4Mp9xUd7SfKjjoI-130" vertex="1">
          <mxGeometry y="138" width="160" height="26" as="geometry" />
        </mxCell>
        <mxCell id="ai49O4Mp9xUd7SfKjjoI-135" value="Booking&#xa;" style="swimlane;fontStyle=1;align=center;verticalAlign=top;childLayout=stackLayout;horizontal=1;startSize=26;horizontalStack=0;resizeParent=1;resizeParentMax=0;resizeLast=0;collapsible=1;marginBottom=0;" parent="1" vertex="1">
          <mxGeometry x="80" y="-510" width="160" height="224" as="geometry" />
        </mxCell>
        <mxCell id="ai49O4Mp9xUd7SfKjjoI-136" value="PobytID&#xa;From&#xa;To&#xa;Lista Gości&#xa;Nr pokoi&#xa;Liczba pokoji&#xa;Lista wykorzystanych usług&#xa;Kwota do zapłaty&#xa;Status rezerwacji&#xa;Status płatności&#xa;&#xa;&#xa;&#xa;&#xa;&#xa;&#xa;" style="text;strokeColor=none;fillColor=none;align=left;verticalAlign=top;spacingLeft=4;spacingRight=4;overflow=hidden;rotatable=0;points=[[0,0.5],[1,0.5]];portConstraint=eastwest;" parent="ai49O4Mp9xUd7SfKjjoI-135" vertex="1">
          <mxGeometry y="26" width="160" height="164" as="geometry" />
        </mxCell>
        <mxCell id="ai49O4Mp9xUd7SfKjjoI-137" value="" style="line;strokeWidth=1;fillColor=none;align=left;verticalAlign=middle;spacingTop=-1;spacingLeft=3;spacingRight=3;rotatable=0;labelPosition=right;points=[];portConstraint=eastwest;" parent="ai49O4Mp9xUd7SfKjjoI-135" vertex="1">
          <mxGeometry y="190" width="160" height="8" as="geometry" />
        </mxCell>
        <mxCell id="ai49O4Mp9xUd7SfKjjoI-138" value="+ method(type): type" style="text;strokeColor=none;fillColor=none;align=left;verticalAlign=top;spacingLeft=4;spacingRight=4;overflow=hidden;rotatable=0;points=[[0,0.5],[1,0.5]];portConstraint=eastwest;" parent="ai49O4Mp9xUd7SfKjjoI-135" vertex="1">
          <mxGeometry y="198" width="160" height="26" as="geometry" />
        </mxCell>
        <mxCell id="ai49O4Mp9xUd7SfKjjoI-139" value="Service&#xa;" style="swimlane;fontStyle=1;align=center;verticalAlign=top;childLayout=stackLayout;horizontal=1;startSize=26;horizontalStack=0;resizeParent=1;resizeParentMax=0;resizeLast=0;collapsible=1;marginBottom=0;" parent="1" vertex="1">
          <mxGeometry x="680" y="-200" width="160" height="144" as="geometry" />
        </mxCell>
        <mxCell id="ai49O4Mp9xUd7SfKjjoI-140" value="ServiceID&#xa;Price&#xa;Name&#xa;Description&#xa;&#xa;&#xa;&#xa;" style="text;strokeColor=none;fillColor=none;align=left;verticalAlign=top;spacingLeft=4;spacingRight=4;overflow=hidden;rotatable=0;points=[[0,0.5],[1,0.5]];portConstraint=eastwest;" parent="ai49O4Mp9xUd7SfKjjoI-139" vertex="1">
          <mxGeometry y="26" width="160" height="84" as="geometry" />
        </mxCell>
        <mxCell id="ai49O4Mp9xUd7SfKjjoI-141" value="" style="line;strokeWidth=1;fillColor=none;align=left;verticalAlign=middle;spacingTop=-1;spacingLeft=3;spacingRight=3;rotatable=0;labelPosition=right;points=[];portConstraint=eastwest;" parent="ai49O4Mp9xUd7SfKjjoI-139" vertex="1">
          <mxGeometry y="110" width="160" height="8" as="geometry" />
        </mxCell>
        <mxCell id="ai49O4Mp9xUd7SfKjjoI-142" value="+ method(type): type" style="text;strokeColor=none;fillColor=none;align=left;verticalAlign=top;spacingLeft=4;spacingRight=4;overflow=hidden;rotatable=0;points=[[0,0.5],[1,0.5]];portConstraint=eastwest;" parent="ai49O4Mp9xUd7SfKjjoI-139" vertex="1">
          <mxGeometry y="118" width="160" height="26" as="geometry" />
        </mxCell>
        <mxCell id="ai49O4Mp9xUd7SfKjjoI-143" value="Order" style="swimlane;fontStyle=1;align=center;verticalAlign=top;childLayout=stackLayout;horizontal=1;startSize=26;horizontalStack=0;resizeParent=1;resizeParentMax=0;resizeLast=0;collapsible=1;marginBottom=0;" parent="1" vertex="1">
          <mxGeometry x="360" y="-200" width="160" height="144" as="geometry" />
        </mxCell>
        <mxCell id="ai49O4Mp9xUd7SfKjjoI-144" value="OrderID&#xa;List of ordered services&#xa;IsDone&#xa;IdPobytu&#xa;Kwota zamówienia&#xa;&#xa;&#xa;" style="text;strokeColor=none;fillColor=none;align=left;verticalAlign=top;spacingLeft=4;spacingRight=4;overflow=hidden;rotatable=0;points=[[0,0.5],[1,0.5]];portConstraint=eastwest;" parent="ai49O4Mp9xUd7SfKjjoI-143" vertex="1">
          <mxGeometry y="26" width="160" height="84" as="geometry" />
        </mxCell>
        <mxCell id="ai49O4Mp9xUd7SfKjjoI-145" value="" style="line;strokeWidth=1;fillColor=none;align=left;verticalAlign=middle;spacingTop=-1;spacingLeft=3;spacingRight=3;rotatable=0;labelPosition=right;points=[];portConstraint=eastwest;" parent="ai49O4Mp9xUd7SfKjjoI-143" vertex="1">
          <mxGeometry y="110" width="160" height="8" as="geometry" />
        </mxCell>
        <mxCell id="ai49O4Mp9xUd7SfKjjoI-146" value="+ method(type): type" style="text;strokeColor=none;fillColor=none;align=left;verticalAlign=top;spacingLeft=4;spacingRight=4;overflow=hidden;rotatable=0;points=[[0,0.5],[1,0.5]];portConstraint=eastwest;" parent="ai49O4Mp9xUd7SfKjjoI-143" vertex="1">
          <mxGeometry y="118" width="160" height="26" as="geometry" />
        </mxCell>
        <mxCell id="ai49O4Mp9xUd7SfKjjoI-163" value="Employee" style="swimlane;fontStyle=1;align=center;verticalAlign=top;childLayout=stackLayout;horizontal=1;startSize=26;horizontalStack=0;resizeParent=1;resizeParentMax=0;resizeLast=0;collapsible=1;marginBottom=0;" parent="1" vertex="1">
          <mxGeometry x="-280" y="-200" width="160" height="144" as="geometry" />
        </mxCell>
        <mxCell id="ai49O4Mp9xUd7SfKjjoI-164" value="EmployeeID&#xa;TasksList&#xa;" style="text;strokeColor=none;fillColor=none;align=left;verticalAlign=top;spacingLeft=4;spacingRight=4;overflow=hidden;rotatable=0;points=[[0,0.5],[1,0.5]];portConstraint=eastwest;" parent="ai49O4Mp9xUd7SfKjjoI-163" vertex="1">
          <mxGeometry y="26" width="160" height="84" as="geometry" />
        </mxCell>
        <mxCell id="ai49O4Mp9xUd7SfKjjoI-165" value="" style="line;strokeWidth=1;fillColor=none;align=left;verticalAlign=middle;spacingTop=-1;spacingLeft=3;spacingRight=3;rotatable=0;labelPosition=right;points=[];portConstraint=eastwest;" parent="ai49O4Mp9xUd7SfKjjoI-163" vertex="1">
          <mxGeometry y="110" width="160" height="8" as="geometry" />
        </mxCell>
        <mxCell id="ai49O4Mp9xUd7SfKjjoI-166" value="+ method(type): type" style="text;strokeColor=none;fillColor=none;align=left;verticalAlign=top;spacingLeft=4;spacingRight=4;overflow=hidden;rotatable=0;points=[[0,0.5],[1,0.5]];portConstraint=eastwest;" parent="ai49O4Mp9xUd7SfKjjoI-163" vertex="1">
          <mxGeometry y="118" width="160" height="26" as="geometry" />
        </mxCell>
        <mxCell id="ai49O4Mp9xUd7SfKjjoI-167" value="Porter&#xa;" style="swimlane;fontStyle=1;align=center;verticalAlign=top;childLayout=stackLayout;horizontal=1;startSize=26;horizontalStack=0;resizeParent=1;resizeParentMax=0;resizeLast=0;collapsible=1;marginBottom=0;" parent="1" vertex="1">
          <mxGeometry x="140" y="100" width="160" height="144" as="geometry" />
        </mxCell>
        <mxCell id="ai49O4Mp9xUd7SfKjjoI-168" value="EmployeeID&#xa;TasksList&#xa;" style="text;strokeColor=none;fillColor=none;align=left;verticalAlign=top;spacingLeft=4;spacingRight=4;overflow=hidden;rotatable=0;points=[[0,0.5],[1,0.5]];portConstraint=eastwest;" parent="ai49O4Mp9xUd7SfKjjoI-167" vertex="1">
          <mxGeometry y="26" width="160" height="84" as="geometry" />
        </mxCell>
        <mxCell id="ai49O4Mp9xUd7SfKjjoI-169" value="" style="line;strokeWidth=1;fillColor=none;align=left;verticalAlign=middle;spacingTop=-1;spacingLeft=3;spacingRight=3;rotatable=0;labelPosition=right;points=[];portConstraint=eastwest;" parent="ai49O4Mp9xUd7SfKjjoI-167" vertex="1">
          <mxGeometry y="110" width="160" height="8" as="geometry" />
        </mxCell>
        <mxCell id="ai49O4Mp9xUd7SfKjjoI-170" value="+ method(type): type" style="text;strokeColor=none;fillColor=none;align=left;verticalAlign=top;spacingLeft=4;spacingRight=4;overflow=hidden;rotatable=0;points=[[0,0.5],[1,0.5]];portConstraint=eastwest;" parent="ai49O4Mp9xUd7SfKjjoI-167" vertex="1">
          <mxGeometry y="118" width="160" height="26" as="geometry" />
        </mxCell>
        <mxCell id="ai49O4Mp9xUd7SfKjjoI-171" value="Manager" style="swimlane;fontStyle=1;align=center;verticalAlign=top;childLayout=stackLayout;horizontal=1;startSize=26;horizontalStack=0;resizeParent=1;resizeParentMax=0;resizeLast=0;collapsible=1;marginBottom=0;" parent="1" vertex="1">
          <mxGeometry x="-690" y="104" width="160" height="144" as="geometry" />
        </mxCell>
        <mxCell id="ai49O4Mp9xUd7SfKjjoI-172" value="EmployeeID&#xa;TasksList&#xa;" style="text;strokeColor=none;fillColor=none;align=left;verticalAlign=top;spacingLeft=4;spacingRight=4;overflow=hidden;rotatable=0;points=[[0,0.5],[1,0.5]];portConstraint=eastwest;" parent="ai49O4Mp9xUd7SfKjjoI-171" vertex="1">
          <mxGeometry y="26" width="160" height="84" as="geometry" />
        </mxCell>
        <mxCell id="ai49O4Mp9xUd7SfKjjoI-173" value="" style="line;strokeWidth=1;fillColor=none;align=left;verticalAlign=middle;spacingTop=-1;spacingLeft=3;spacingRight=3;rotatable=0;labelPosition=right;points=[];portConstraint=eastwest;" parent="ai49O4Mp9xUd7SfKjjoI-171" vertex="1">
          <mxGeometry y="110" width="160" height="8" as="geometry" />
        </mxCell>
        <mxCell id="ai49O4Mp9xUd7SfKjjoI-174" value="+ method(type): type" style="text;strokeColor=none;fillColor=none;align=left;verticalAlign=top;spacingLeft=4;spacingRight=4;overflow=hidden;rotatable=0;points=[[0,0.5],[1,0.5]];portConstraint=eastwest;" parent="ai49O4Mp9xUd7SfKjjoI-171" vertex="1">
          <mxGeometry y="118" width="160" height="26" as="geometry" />
        </mxCell>
        <mxCell id="ai49O4Mp9xUd7SfKjjoI-175" value="Waiter" style="swimlane;fontStyle=1;align=center;verticalAlign=top;childLayout=stackLayout;horizontal=1;startSize=26;horizontalStack=0;resizeParent=1;resizeParentMax=0;resizeLast=0;collapsible=1;marginBottom=0;" parent="1" vertex="1">
          <mxGeometry x="-480" y="104" width="160" height="144" as="geometry" />
        </mxCell>
        <mxCell id="ai49O4Mp9xUd7SfKjjoI-176" value="EmployeeID&#xa;TasksList&#xa;" style="text;strokeColor=none;fillColor=none;align=left;verticalAlign=top;spacingLeft=4;spacingRight=4;overflow=hidden;rotatable=0;points=[[0,0.5],[1,0.5]];portConstraint=eastwest;" parent="ai49O4Mp9xUd7SfKjjoI-175" vertex="1">
          <mxGeometry y="26" width="160" height="84" as="geometry" />
        </mxCell>
        <mxCell id="ai49O4Mp9xUd7SfKjjoI-177" value="" style="line;strokeWidth=1;fillColor=none;align=left;verticalAlign=middle;spacingTop=-1;spacingLeft=3;spacingRight=3;rotatable=0;labelPosition=right;points=[];portConstraint=eastwest;" parent="ai49O4Mp9xUd7SfKjjoI-175" vertex="1">
          <mxGeometry y="110" width="160" height="8" as="geometry" />
        </mxCell>
        <mxCell id="ai49O4Mp9xUd7SfKjjoI-178" value="+ method(type): type" style="text;strokeColor=none;fillColor=none;align=left;verticalAlign=top;spacingLeft=4;spacingRight=4;overflow=hidden;rotatable=0;points=[[0,0.5],[1,0.5]];portConstraint=eastwest;" parent="ai49O4Mp9xUd7SfKjjoI-175" vertex="1">
          <mxGeometry y="118" width="160" height="26" as="geometry" />
        </mxCell>
        <mxCell id="ai49O4Mp9xUd7SfKjjoI-179" value="Maid&#xa;" style="swimlane;fontStyle=1;align=center;verticalAlign=top;childLayout=stackLayout;horizontal=1;startSize=26;horizontalStack=0;resizeParent=1;resizeParentMax=0;resizeLast=0;collapsible=1;marginBottom=0;" parent="1" vertex="1">
          <mxGeometry x="-80" y="104" width="160" height="144" as="geometry" />
        </mxCell>
        <mxCell id="ai49O4Mp9xUd7SfKjjoI-180" value="EmployeeID&#xa;TasksList&#xa;" style="text;strokeColor=none;fillColor=none;align=left;verticalAlign=top;spacingLeft=4;spacingRight=4;overflow=hidden;rotatable=0;points=[[0,0.5],[1,0.5]];portConstraint=eastwest;" parent="ai49O4Mp9xUd7SfKjjoI-179" vertex="1">
          <mxGeometry y="26" width="160" height="84" as="geometry" />
        </mxCell>
        <mxCell id="ai49O4Mp9xUd7SfKjjoI-181" value="" style="line;strokeWidth=1;fillColor=none;align=left;verticalAlign=middle;spacingTop=-1;spacingLeft=3;spacingRight=3;rotatable=0;labelPosition=right;points=[];portConstraint=eastwest;" parent="ai49O4Mp9xUd7SfKjjoI-179" vertex="1">
          <mxGeometry y="110" width="160" height="8" as="geometry" />
        </mxCell>
        <mxCell id="ai49O4Mp9xUd7SfKjjoI-182" value="+ method(type): type" style="text;strokeColor=none;fillColor=none;align=left;verticalAlign=top;spacingLeft=4;spacingRight=4;overflow=hidden;rotatable=0;points=[[0,0.5],[1,0.5]];portConstraint=eastwest;" parent="ai49O4Mp9xUd7SfKjjoI-179" vertex="1">
          <mxGeometry y="118" width="160" height="26" as="geometry" />
        </mxCell>
        <mxCell id="ai49O4Mp9xUd7SfKjjoI-183" value="Task" style="swimlane;fontStyle=1;align=center;verticalAlign=top;childLayout=stackLayout;horizontal=1;startSize=26;horizontalStack=0;resizeParent=1;resizeParentMax=0;resizeLast=0;collapsible=1;marginBottom=0;" parent="1" vertex="1">
          <mxGeometry x="-780" y="-200" width="160" height="144" as="geometry" />
        </mxCell>
        <mxCell id="ai49O4Mp9xUd7SfKjjoI-184" value="EmployeeID&#xa;Name&#xa;Description&#xa;IsDone&#xa;" style="text;strokeColor=none;fillColor=none;align=left;verticalAlign=top;spacingLeft=4;spacingRight=4;overflow=hidden;rotatable=0;points=[[0,0.5],[1,0.5]];portConstraint=eastwest;" parent="ai49O4Mp9xUd7SfKjjoI-183" vertex="1">
          <mxGeometry y="26" width="160" height="84" as="geometry" />
        </mxCell>
        <mxCell id="ai49O4Mp9xUd7SfKjjoI-185" value="" style="line;strokeWidth=1;fillColor=none;align=left;verticalAlign=middle;spacingTop=-1;spacingLeft=3;spacingRight=3;rotatable=0;labelPosition=right;points=[];portConstraint=eastwest;" parent="ai49O4Mp9xUd7SfKjjoI-183" vertex="1">
          <mxGeometry y="110" width="160" height="8" as="geometry" />
        </mxCell>
        <mxCell id="ai49O4Mp9xUd7SfKjjoI-186" value="+ method(type): type" style="text;strokeColor=none;fillColor=none;align=left;verticalAlign=top;spacingLeft=4;spacingRight=4;overflow=hidden;rotatable=0;points=[[0,0.5],[1,0.5]];portConstraint=eastwest;" parent="ai49O4Mp9xUd7SfKjjoI-183" vertex="1">
          <mxGeometry y="118" width="160" height="26" as="geometry" />
        </mxCell>
        <mxCell id="ai49O4Mp9xUd7SfKjjoI-188" value="" style="endArrow=block;endSize=16;endFill=0;html=1;rounded=0;edgeStyle=elbowEdgeStyle;elbow=vertical;exitX=0.5;exitY=0;exitDx=0;exitDy=0;" parent="1" source="ai49O4Mp9xUd7SfKjjoI-163" target="ai49O4Mp9xUd7SfKjjoI-120" edge="1">
          <mxGeometry x="0.0977" width="160" relative="1" as="geometry">
            <mxPoint x="-200" y="-250" as="sourcePoint" />
            <mxPoint x="-10" y="-333" as="targetPoint" />
            <mxPoint as="offset" />
          </mxGeometry>
        </mxCell>
        <mxCell id="ai49O4Mp9xUd7SfKjjoI-197" value="" style="endArrow=block;endSize=16;endFill=0;html=1;rounded=0;edgeStyle=elbowEdgeStyle;elbow=vertical;" parent="1" edge="1">
          <mxGeometry width="160" relative="1" as="geometry">
            <mxPoint x="119" y="-200" as="sourcePoint" />
            <mxPoint x="-80" y="-320" as="targetPoint" />
            <Array as="points">
              <mxPoint x="-10" y="-260" />
            </Array>
          </mxGeometry>
        </mxCell>
        <mxCell id="ai49O4Mp9xUd7SfKjjoI-200" value="Extends" style="edgeLabel;html=1;align=center;verticalAlign=middle;resizable=0;points=[];" parent="ai49O4Mp9xUd7SfKjjoI-197" vertex="1" connectable="0">
          <mxGeometry x="0.7448" y="-2" relative="1" as="geometry">
            <mxPoint x="-2" y="3" as="offset" />
          </mxGeometry>
        </mxCell>
        <mxCell id="ai49O4Mp9xUd7SfKjjoI-202" value="" style="endArrow=block;endSize=16;endFill=0;html=1;rounded=0;edgeStyle=elbowEdgeStyle;elbow=vertical;exitX=0.75;exitY=0;exitDx=0;exitDy=0;" parent="1" source="ai49O4Mp9xUd7SfKjjoI-171" target="ai49O4Mp9xUd7SfKjjoI-163" edge="1">
          <mxGeometry x="0.0977" width="160" relative="1" as="geometry">
            <mxPoint x="-560" y="100" as="sourcePoint" />
            <mxPoint x="-413" y="-70" as="targetPoint" />
            <mxPoint as="offset" />
          </mxGeometry>
        </mxCell>
        <mxCell id="ai49O4Mp9xUd7SfKjjoI-203" value="" style="endArrow=block;endSize=16;endFill=0;html=1;rounded=0;edgeStyle=elbowEdgeStyle;elbow=vertical;" parent="1" source="ai49O4Mp9xUd7SfKjjoI-175" target="ai49O4Mp9xUd7SfKjjoI-163" edge="1">
          <mxGeometry x="0.0977" width="160" relative="1" as="geometry">
            <mxPoint x="-150" y="44" as="sourcePoint" />
            <mxPoint x="40" y="-76" as="targetPoint" />
            <mxPoint as="offset" />
          </mxGeometry>
        </mxCell>
        <mxCell id="ai49O4Mp9xUd7SfKjjoI-204" value="" style="endArrow=block;endSize=16;endFill=0;html=1;rounded=0;edgeStyle=elbowEdgeStyle;elbow=vertical;" parent="1" source="ai49O4Mp9xUd7SfKjjoI-121" target="ai49O4Mp9xUd7SfKjjoI-163" edge="1">
          <mxGeometry x="0.0977" width="160" relative="1" as="geometry">
            <mxPoint x="-588" y="44" as="sourcePoint" />
            <mxPoint x="-398" y="-76" as="targetPoint" />
            <mxPoint as="offset" />
          </mxGeometry>
        </mxCell>
        <mxCell id="ai49O4Mp9xUd7SfKjjoI-205" value="" style="endArrow=block;endSize=16;endFill=0;html=1;rounded=0;edgeStyle=elbowEdgeStyle;elbow=vertical;exitX=0.5;exitY=0;exitDx=0;exitDy=0;" parent="1" source="ai49O4Mp9xUd7SfKjjoI-179" target="ai49O4Mp9xUd7SfKjjoI-163" edge="1">
          <mxGeometry x="0.0977" width="160" relative="1" as="geometry">
            <mxPoint x="-160" y="44" as="sourcePoint" />
            <mxPoint x="30" y="-76" as="targetPoint" />
            <mxPoint as="offset" />
          </mxGeometry>
        </mxCell>
        <mxCell id="ai49O4Mp9xUd7SfKjjoI-206" value="" style="endArrow=block;endSize=16;endFill=0;html=1;rounded=0;edgeStyle=elbowEdgeStyle;elbow=vertical;" parent="1" source="ai49O4Mp9xUd7SfKjjoI-167" target="ai49O4Mp9xUd7SfKjjoI-163" edge="1">
          <mxGeometry x="0.0977" width="160" relative="1" as="geometry">
            <mxPoint x="-230" y="32" as="sourcePoint" />
            <mxPoint x="-40" y="-88" as="targetPoint" />
            <mxPoint as="offset" />
            <Array as="points">
              <mxPoint x="10" y="23" />
            </Array>
          </mxGeometry>
        </mxCell>
        <mxCell id="ai49O4Mp9xUd7SfKjjoI-211" value="" style="endArrow=none;startArrow=none;endFill=0;startFill=0;html=1;verticalAlign=bottom;labelBackgroundColor=none;strokeWidth=1;rounded=0;elbow=vertical;" parent="1" source="ai49O4Mp9xUd7SfKjjoI-125" target="ai49O4Mp9xUd7SfKjjoI-143" edge="1">
          <mxGeometry width="160" relative="1" as="geometry">
            <mxPoint x="-430" y="-118" as="sourcePoint" />
            <mxPoint x="-270" y="-118" as="targetPoint" />
          </mxGeometry>
        </mxCell>
        <mxCell id="ai49O4Mp9xUd7SfKjjoI-212" value="" style="endArrow=none;startArrow=none;endFill=0;startFill=0;html=1;verticalAlign=bottom;labelBackgroundColor=none;strokeWidth=1;rounded=0;elbow=vertical;" parent="1" source="ai49O4Mp9xUd7SfKjjoI-143" target="ai49O4Mp9xUd7SfKjjoI-139" edge="1">
          <mxGeometry width="160" relative="1" as="geometry">
            <mxPoint x="520" y="-138.70999999999978" as="sourcePoint" />
            <mxPoint x="640" y="-138.70999999999978" as="targetPoint" />
          </mxGeometry>
        </mxCell>
        <mxCell id="ai49O4Mp9xUd7SfKjjoI-213" style="edgeStyle=none;rounded=0;orthogonalLoop=1;jettySize=auto;html=1;exitX=0.75;exitY=0;exitDx=0;exitDy=0;endArrow=halfCircle;endFill=0;strokeColor=default;strokeWidth=1;elbow=vertical;" parent="1" source="ai49O4Mp9xUd7SfKjjoI-135" target="ai49O4Mp9xUd7SfKjjoI-135" edge="1">
          <mxGeometry relative="1" as="geometry" />
        </mxCell>
        <mxCell id="ai49O4Mp9xUd7SfKjjoI-214" value="" style="endArrow=none;startArrow=none;endFill=0;startFill=0;html=1;verticalAlign=bottom;labelBackgroundColor=none;strokeWidth=1;rounded=0;elbow=vertical;exitX=1.006;exitY=0.74;exitDx=0;exitDy=0;exitPerimeter=0;edgeStyle=orthogonalEdgeStyle;" parent="1" source="ai49O4Mp9xUd7SfKjjoI-136" edge="1">
          <mxGeometry width="160" relative="1" as="geometry">
            <mxPoint x="250" y="-117.99999999999977" as="sourcePoint" />
            <mxPoint x="440" y="-200" as="targetPoint" />
          </mxGeometry>
        </mxCell>
        <mxCell id="ai49O4Mp9xUd7SfKjjoI-215" value="" style="endArrow=none;startArrow=none;endFill=0;startFill=0;html=1;verticalAlign=bottom;labelBackgroundColor=none;strokeWidth=1;rounded=0;elbow=vertical;exitX=1.006;exitY=0.283;exitDx=0;exitDy=0;exitPerimeter=0;" parent="1" source="ai49O4Mp9xUd7SfKjjoI-136" target="ai49O4Mp9xUd7SfKjjoI-130" edge="1">
          <mxGeometry width="160" relative="1" as="geometry">
            <mxPoint x="450" y="-285" as="sourcePoint" />
            <mxPoint x="450" y="-190" as="targetPoint" />
          </mxGeometry>
        </mxCell>
        <mxCell id="ai49O4Mp9xUd7SfKjjoI-218" value="&lt;div&gt;orders&lt;/div&gt;" style="text;html=1;align=center;verticalAlign=middle;resizable=0;points=[];autosize=1;strokeColor=none;fillColor=none;" parent="1" vertex="1">
          <mxGeometry x="290" y="-150" width="50" height="20" as="geometry" />
        </mxCell>
        <mxCell id="ai49O4Mp9xUd7SfKjjoI-223" value="" style="endArrow=none;startArrow=none;endFill=0;startFill=0;html=1;verticalAlign=bottom;labelBackgroundColor=none;strokeWidth=1;rounded=0;elbow=vertical;" parent="1" source="ai49O4Mp9xUd7SfKjjoI-163" target="ai49O4Mp9xUd7SfKjjoI-183" edge="1">
          <mxGeometry width="160" relative="1" as="geometry">
            <mxPoint x="250" y="-118" as="sourcePoint" />
            <mxPoint x="370" y="-118" as="targetPoint" />
          </mxGeometry>
        </mxCell>
        <mxCell id="ai49O4Mp9xUd7SfKjjoI-225" value="" style="endArrow=none;startArrow=none;endFill=0;startFill=0;html=1;verticalAlign=bottom;labelBackgroundColor=none;strokeWidth=1;rounded=0;elbow=vertical;" parent="1" source="ai49O4Mp9xUd7SfKjjoI-125" target="ai49O4Mp9xUd7SfKjjoI-135" edge="1">
          <mxGeometry width="160" relative="1" as="geometry">
            <mxPoint x="250" y="-118" as="sourcePoint" />
            <mxPoint x="370" y="-118" as="targetPoint" />
          </mxGeometry>
        </mxCell>
        <mxCell id="ai49O4Mp9xUd7SfKjjoI-236" value="&lt;div&gt;books&lt;/div&gt;" style="edgeLabel;html=1;align=center;verticalAlign=middle;resizable=0;points=[];" parent="ai49O4Mp9xUd7SfKjjoI-225" vertex="1" connectable="0">
          <mxGeometry x="0.5349" y="-7" relative="1" as="geometry">
            <mxPoint x="13" y="11" as="offset" />
          </mxGeometry>
        </mxCell>
        <mxCell id="ai49O4Mp9xUd7SfKjjoI-235" value="" style="endArrow=none;startArrow=none;endFill=0;startFill=0;html=1;verticalAlign=bottom;labelBackgroundColor=none;strokeWidth=1;rounded=0;elbow=vertical;edgeStyle=orthogonalEdgeStyle;" parent="1" target="ai49O4Mp9xUd7SfKjjoI-186" edge="1">
          <mxGeometry width="160" relative="1" as="geometry">
            <mxPoint x="440" as="sourcePoint" />
            <mxPoint x="-700" y="-118" as="targetPoint" />
            <Array as="points">
              <mxPoint x="-740" y="350" />
            </Array>
          </mxGeometry>
        </mxCell>
        <mxCell id="ai49O4Mp9xUd7SfKjjoI-238" value="1...*" style="text;html=1;align=center;verticalAlign=middle;resizable=0;points=[];autosize=1;strokeColor=none;fillColor=none;" parent="1" vertex="1">
          <mxGeometry x="240" y="-460" width="40" height="20" as="geometry" />
        </mxCell>
        <mxCell id="ai49O4Mp9xUd7SfKjjoI-240" value="1...*" style="text;whiteSpace=wrap;html=1;" parent="1" vertex="1">
          <mxGeometry x="610" y="-465" width="50" height="30" as="geometry" />
        </mxCell>
        <mxCell id="ai49O4Mp9xUd7SfKjjoI-241" value="*" style="text;html=1;align=center;verticalAlign=middle;resizable=0;points=[];autosize=1;strokeColor=none;fillColor=none;" parent="1" vertex="1">
          <mxGeometry x="440" y="-220" width="20" height="20" as="geometry" />
        </mxCell>
        <mxCell id="ai49O4Mp9xUd7SfKjjoI-242" value="1" style="text;html=1;align=center;verticalAlign=middle;resizable=0;points=[];autosize=1;strokeColor=none;fillColor=none;" parent="1" vertex="1">
          <mxGeometry x="240" y="-380" width="20" height="20" as="geometry" />
        </mxCell>
        <mxCell id="ai49O4Mp9xUd7SfKjjoI-243" value="*" style="text;html=1;align=center;verticalAlign=middle;resizable=0;points=[];autosize=1;strokeColor=none;fillColor=none;" parent="1" vertex="1">
          <mxGeometry x="340" y="-150" width="20" height="20" as="geometry" />
        </mxCell>
        <mxCell id="ai49O4Mp9xUd7SfKjjoI-245" value="1" style="text;html=1;align=center;verticalAlign=middle;resizable=0;points=[];autosize=1;strokeColor=none;fillColor=none;" parent="1" vertex="1">
          <mxGeometry x="240" y="-150" width="20" height="20" as="geometry" />
        </mxCell>
        <mxCell id="ai49O4Mp9xUd7SfKjjoI-246" value="1...*" style="text;html=1;align=center;verticalAlign=middle;resizable=0;points=[];autosize=1;strokeColor=none;fillColor=none;" parent="1" vertex="1">
          <mxGeometry x="640" y="-150" width="40" height="20" as="geometry" />
        </mxCell>
        <mxCell id="ai49O4Mp9xUd7SfKjjoI-249" value="&lt;div&gt;*&lt;/div&gt;" style="text;html=1;align=center;verticalAlign=middle;resizable=0;points=[];autosize=1;strokeColor=none;fillColor=none;" parent="1" vertex="1">
          <mxGeometry x="520" y="-150" width="20" height="20" as="geometry" />
        </mxCell>
        <mxCell id="ai49O4Mp9xUd7SfKjjoI-250" value="1...*" style="text;whiteSpace=wrap;html=1;" parent="1" vertex="1">
          <mxGeometry x="170" y="-286" width="50" height="30" as="geometry" />
        </mxCell>
        <mxCell id="ai49O4Mp9xUd7SfKjjoI-254" value="1...*" style="text;whiteSpace=wrap;html=1;" parent="1" vertex="1">
          <mxGeometry x="170" y="-225" width="50" height="30" as="geometry" />
        </mxCell>
        <mxCell id="ai49O4Mp9xUd7SfKjjoI-257" value="" style="endArrow=none;startArrow=none;endFill=0;startFill=0;html=1;verticalAlign=bottom;labelBackgroundColor=none;strokeWidth=1;rounded=0;elbow=vertical;exitX=0.25;exitY=0;exitDx=0;exitDy=0;" parent="1" source="ai49O4Mp9xUd7SfKjjoI-171" edge="1">
          <mxGeometry width="160" relative="1" as="geometry">
            <mxPoint x="-270" y="-117.99999999999977" as="sourcePoint" />
            <mxPoint x="-650" y="-50" as="targetPoint" />
          </mxGeometry>
        </mxCell>
        <mxCell id="ai49O4Mp9xUd7SfKjjoI-258" value="does" style="text;html=1;align=center;verticalAlign=middle;resizable=0;points=[];autosize=1;strokeColor=none;fillColor=none;" parent="1" vertex="1">
          <mxGeometry x="-600" y="-150" width="40" height="20" as="geometry" />
        </mxCell>
        <mxCell id="ai49O4Mp9xUd7SfKjjoI-261" value="" style="endArrow=none;startArrow=none;endFill=0;startFill=0;html=1;verticalAlign=bottom;labelBackgroundColor=none;strokeWidth=1;rounded=0;elbow=vertical;edgeStyle=orthogonalEdgeStyle;" parent="1" source="ai49O4Mp9xUd7SfKjjoI-143" edge="1">
          <mxGeometry width="160" relative="1" as="geometry">
            <mxPoint x="440" y="-55.999999999999545" as="sourcePoint" />
            <mxPoint x="440" as="targetPoint" />
            <Array as="points">
              <mxPoint x="440" y="350" />
            </Array>
          </mxGeometry>
        </mxCell>
        <mxCell id="ai49O4Mp9xUd7SfKjjoI-262" value="&lt;span style=&quot;white-space: pre&quot;&gt; &lt;/span&gt;creates" style="text;html=1;align=center;verticalAlign=middle;resizable=0;points=[];autosize=1;strokeColor=none;fillColor=none;" parent="1" vertex="1">
          <mxGeometry x="-680" y="-40" width="80" height="20" as="geometry" />
        </mxCell>
        <mxCell id="ai49O4Mp9xUd7SfKjjoI-263" value="*" style="text;html=1;align=center;verticalAlign=middle;resizable=0;points=[];autosize=1;strokeColor=none;fillColor=none;" parent="1" vertex="1">
          <mxGeometry x="-650" y="-50" width="20" height="20" as="geometry" />
        </mxCell>
        <mxCell id="ai49O4Mp9xUd7SfKjjoI-264" value="1" style="text;html=1;align=center;verticalAlign=middle;resizable=0;points=[];autosize=1;strokeColor=none;fillColor=none;" parent="1" vertex="1">
          <mxGeometry x="-650" y="80" width="20" height="20" as="geometry" />
        </mxCell>
        <mxCell id="ai49O4Mp9xUd7SfKjjoI-265" value="0...1" style="text;html=1;align=center;verticalAlign=middle;resizable=0;points=[];autosize=1;strokeColor=none;fillColor=none;" parent="1" vertex="1">
          <mxGeometry x="440" y="-50" width="40" height="20" as="geometry" />
        </mxCell>
        <mxCell id="ai49O4Mp9xUd7SfKjjoI-266" value="1...*" style="text;html=1;align=center;verticalAlign=middle;resizable=0;points=[];autosize=1;strokeColor=none;fillColor=none;" parent="1" vertex="1">
          <mxGeometry x="-740" y="-50" width="40" height="20" as="geometry" />
        </mxCell>
        <mxCell id="ai49O4Mp9xUd7SfKjjoI-267" value="*" style="text;html=1;align=center;verticalAlign=middle;resizable=0;points=[];autosize=1;strokeColor=none;fillColor=none;" parent="1" vertex="1">
          <mxGeometry x="-620" y="-150" width="20" height="20" as="geometry" />
        </mxCell>
        <mxCell id="ai49O4Mp9xUd7SfKjjoI-268" value="1...*" style="text;html=1;align=center;verticalAlign=middle;resizable=0;points=[];autosize=1;strokeColor=none;fillColor=none;" parent="1" vertex="1">
          <mxGeometry x="-320" y="-150" width="40" height="20" as="geometry" />
        </mxCell>
        <mxCell id="ai49O4Mp9xUd7SfKjjoI-269" value="refers to" style="text;html=1;align=center;verticalAlign=middle;resizable=0;points=[];autosize=1;strokeColor=none;fillColor=none;" parent="1" vertex="1">
          <mxGeometry x="440" y="-30" width="60" height="20" as="geometry" />
        </mxCell>
      </root>
    </mxGraphModel>
  </diagram>
</mxfile>
